<svg height="96" viewBox="0 0 331 96" width="331" xmlns="http://www.w3.org/2000/svg" xmlns:xlink="http://www.w3.org/1999/xlink"><defs><linearGradient id="a" x1="38.513513%" x2=".540539%" y1="247.333349%" y2="-.000012%"><stop offset="0" stop-color="#561819"/><stop offset="1" stop-color="#d05c5d"/></linearGradient><rect id="b" height="96" rx="20" width="96"/></defs><g fill="none"><g fill="#d05c5d" transform="translate(119.132 33.784)"><path d="m0 27.216h4.212v-10.944h8.64v-3.996h-8.64v-6.588h10.98v-4.032h-15.192z"/><path d="m23.436 2.628c0-1.44-1.152-2.628-2.628-2.628-1.44 0-2.664 1.188-2.664 2.628 0 1.476 1.224 2.664 2.664 2.664 1.476 0 2.628-1.188 2.628-2.664zm-4.608 24.588h3.96v-18h-3.96z"/><path d="m28.116 27.216h3.96v-27h-3.96z"/><path d="m37.404 27.216h3.96v-27h-3.96z"/><path d="m45.396 18.216c0 5.148 3.744 9.36 8.676 9.36 2.592 0 4.752-1.332 5.76-2.772v2.412h3.96v-18h-3.96v2.412c-1.008-1.44-3.168-2.772-5.76-2.772-4.932 0-8.676 4.212-8.676 9.36zm14.76 0c0 3.24-2.16 5.76-5.364 5.76s-5.364-2.52-5.364-5.76 2.16-5.76 5.364-5.76 5.364 2.52 5.364 5.76z"/><path d="m73.116 24.804c1.008 1.44 3.204 2.772 5.796 2.772 4.932 0 8.676-4.212 8.676-9.36s-3.744-9.36-8.676-9.36c-2.592 0-4.788 1.332-5.796 2.772v-11.412h-3.96v27h3.96zm10.44-6.588c0 3.24-2.196 5.76-5.364 5.76-3.204 0-5.4-2.52-5.4-5.76s2.196-5.76 5.4-5.76c3.168 0 5.364 2.52 5.364 5.76z"/><path d="m91.62 27.216h3.96v-27h-3.96z"/><path d="m117.684 21.564h-4.14c-.828 1.728-2.556 2.52-4.536 2.52-3.204 0-5.292-2.16-5.436-4.896h14.328c.36-6.12-3.492-10.332-9-10.332-5.544 0-9.252 4.032-9.252 9.36 0 5.4 3.852 9.36 9.216 9.36 4.572 0 7.812-2.628 8.82-6.012zm-8.892-9.396c2.196 0 4.248 1.296 4.86 4.212h-9.936c.54-2.772 2.592-4.212 5.076-4.212z"/><path d="m139.032 1.656h-8.136v25.56h4.212v-8.856h3.924c5.256 0 8.856-3.636 8.856-8.352s-3.6-8.352-8.856-8.352zm-.036 12.744h-3.888v-8.784h3.888c2.988 0 4.752 1.908 4.752 4.392s-1.764 4.392-4.752 4.392z"/><path d="m152.064 27.216h7.848c7.596 0 13.392-5.544 13.392-12.78s-5.796-12.78-13.392-12.78h-7.848zm4.212-3.924v-17.712h3.636c5.472 0 9.108 3.852 9.108 8.856s-3.636 8.856-9.108 8.856z"/><path d="m177.948 27.216h4.212v-10.944h8.64v-3.996h-8.64v-6.588h10.98v-4.032h-15.192z"/><path d="m210.168 22.248c0-2.736-1.548-4.608-4.788-5.436l-3.024-.792c-1.512-.396-2.412-1.008-2.412-2.16s1.116-1.836 2.628-1.836c1.404 0 2.592.72 2.952 2.232h3.96c-.288-3.24-2.988-5.4-6.876-5.4-4.032 0-6.696 2.016-6.696 5.04 0 2.628 1.512 4.644 4.608 5.436l2.952.792c1.872.468 2.664 1.152 2.664 2.376s-1.188 1.908-2.916 1.908c-1.764 0-3.384-.72-3.708-2.664h-4.104c.216 3.6 3.492 5.832 7.704 5.832 4.032 0 7.056-1.836 7.056-5.328z"/></g><g><use fill="#0b1033" xlink:href="#b"/><use fill="url(#a)" xlink:href="#b"/></g><g stroke="#faf9fd" stroke-linecap="round" stroke-linejoin="round" stroke-width="4" transform="translate(26 26.5002)"><path d="m0 44.499512h45"/><path d="m3.5 36.9997482c.96533298-6.298665 2.18433285-10.1843309 3.65699959-11.6569977l23.68599891-23.68600042c2.2090001-2.20900011 5.7909999-2.20900011 8 0s2.2090001 5.79099953 0 7.99999965l-23.6859989 23.68599697c-1.472 1.4713334-5.3576665 2.6903339-11.6569996 3.6570015z"/><path d="m7.5 24.9997501c3 0 4.5.5 6 2s2 3 2 6"/><path d="m40.5 14.9997501 2 2-8 8"/></g></g></svg>