<?xml version="1.0" encoding="UTF-8"?>
<svg width="724px" height="664px" viewBox="0 0 724 664" version="1.1" xmlns="http://www.w3.org/2000/svg" xmlns:xlink="http://www.w3.org/1999/xlink">
    <title>Mark</title>
    <defs>
        <path d="M339.961524,13.902072 L524.038476,120.018833 C556.192379,138.554929 576,172.811047 576,209.883239 L576,422.116761 C576,459.188953 556.192379,493.445071 524.038476,511.981167 L339.961524,618.097928 C307.807621,636.634024 268.192379,636.634024 236.038476,618.097928 L51.9615242,511.981167 C19.8076211,493.445071 0,459.188953 0,422.116761 L0,209.883239 C0,172.811047 19.8076211,138.554929 51.9615242,120.018833 L236.038476,13.902072 C268.192379,-4.634024 307.807621,-4.634024 339.961524,13.902072 Z" id="path-1"></path>
    </defs>
    <g id="Mark-Only" stroke="none" stroke-width="1" fill="none" fill-rule="evenodd">
        <g id="Logo---Mark-Only-Copy" transform="translate(-50.000000, -50.000000)">
            <g id="Mark" transform="translate(50.000000, 50.470054)">
                <path d="M559.544913,161.905683 C484.037773,181.545937 390.766807,217.533893 297.91663,263.35329 C204.977995,309.216338 123.943081,359.26067 69.9200063,403.614197 L68.106686,405.109219 C41.9743135,426.745939 22.8433245,446.589307 11.7376943,463.93589 C5.3670622,473.88658 1.46163547,483.249732 0.334815993,492.164544 C-1.01516921,502.844929 1.71210997,512.704737 8.60944279,520.497967 C29.5545624,544.163656 84.1368638,542.405938 164.452633,521.514906 C239.959772,501.874652 333.230739,465.886696 426.080916,420.067299 C519.019551,374.204251 600.054465,324.15992 654.07754,279.806392 L655.89086,278.31137 C682.023232,256.67465 701.154221,236.831282 712.259852,219.4847 C718.630484,209.534009 722.53591,200.170857 723.66273,191.256045 C725.012715,180.575661 722.285436,170.715852 715.388103,162.922622 C694.442983,139.256933 639.860682,141.014651 559.544913,161.905683 Z M692.922959,182.80521 C693.871869,183.877375 694.204626,185.080376 693.899545,187.494021 C693.403296,191.420083 691.155153,196.809943 686.994235,203.309144 C677.622315,217.947735 659.883742,236.223811 635.041142,256.619854 C582.96549,299.374526 503.828852,348.246548 412.805088,393.164653 C321.692865,438.126409 230.305607,473.38755 156.900593,492.481017 L154.437042,493.117432 C120.478179,501.829318 91.5245675,506.726864 69.4040379,507.532541 L68.6074795,507.55988 C47.9953694,508.223653 35.0876044,505.149649 31.0745872,500.615379 C30.1256767,499.543215 29.7929197,498.340213 30.0980009,495.926568 C30.5942496,492.000506 32.8423925,486.610646 37.0033113,480.111445 C46.3752314,465.472854 64.1138041,447.196778 88.9564044,426.800735 C141.032056,384.046063 220.168694,335.174041 311.192458,290.255936 C402.30468,245.29418 493.691939,210.033039 567.096953,190.939572 C602.532081,181.722498 632.640878,176.593303 655.390066,175.860709 C676.002176,175.196936 688.909942,178.27094 692.922959,182.80521 Z" id="Ring" fill="#000000" fill-rule="nonzero"></path>
                <g id="Background" transform="translate(57.469947, 0.000000)">
                    <g transform="translate(16.530053, 15.529946)">
                        <mask id="mask-2" fill="white">
                            <use xlink:href="#path-1"></use>
                        </mask>
                        <g id="Mask"></g>
                        <path d="M340.453274,14.0403873 L523.546726,119.640948 C556.004925,138.361465 576,172.958406 576,210.399439 L576,421.600561 C576,459.041594 556.004925,493.638535 523.546726,512.359052 L340.453274,617.959613 C307.995075,636.680129 268.004925,636.680129 235.546726,617.959613 L52.4532737,512.359052 C19.995075,493.638535 0,459.041594 0,421.600561 L0,210.399439 C0,172.958406 19.995075,138.361465 52.4532737,119.640948 L235.546726,14.0403873 C268.004925,-4.68012912 307.995075,-4.68012912 340.453274,14.0403873 Z" fill-opacity="0" fill="#E93B70" mask="url(#mask-2)"></path>
                        <path d="M643.399004,150.12315 C650.295227,157.900923 653.017085,167.749341 651.658851,178.415048 C650.526379,187.30793 646.619799,196.646661 640.252256,206.572727 C628.900314,224.26874 609.165663,244.577445 582.142088,266.748306 C528.195969,311.007139 447.288879,360.969528 354.505526,406.780588 C261.810434,452.54807 168.702974,488.520338 93.3355854,508.182362 C13.9531982,528.891828 -40.2251512,530.881315 -61.587501,508.039044 L-62.2247924,507.339247 L-39.7776617,487.436324 C-35.8373053,491.88038 -23.1989616,494.908109 -3.02358357,494.308155 L-2.36302086,494.287303 C20.3403898,493.529286 50.392184,488.381448 85.7625802,479.153935 C159.033439,460.038859 250.262263,424.792406 341.223954,379.880777 C432.097383,335.012727 511.110919,286.21966 563.113784,243.555125 L564.757107,242.201427 C588.704694,222.393771 605.845996,204.646071 615.001292,190.374306 C619.156391,183.897116 621.402099,178.528723 621.899186,174.625277 C622.189445,172.345985 621.906084,171.175946 621.069395,170.163277 L620.951873,170.026072 L643.399004,150.12315 Z" id="Partial-Ring" fill="#000000" fill-rule="nonzero" mask="url(#mask-2)"></path>
                        <path d="M81,567.870087 C81,427.895908 111.457512,270.472003 172.372535,175.59837 C175.356449,170.950991 181.542835,169.602491 186.190212,172.586408 C188.325717,173.957541 189.860034,176.089312 190.482191,178.549659 L207,243.870087 L227.110305,241.387333 C267.551779,236.394558 308.451943,236.364226 348.900778,241.297011 L370,243.870087 L386.517809,178.549659 C387.139966,176.089312 388.674283,173.957541 390.809788,172.586408 C395.457165,169.602491 401.643551,170.950991 404.627465,175.59837 C465.542488,270.472003 496,427.895908 496,567.870087 C407.111111,614.623362 338.111111,638 289,638 C245.888889,638 176.555556,614.623362 81,567.870087 Z" id="Path" fill="#FFFFFF" mask="url(#mask-2)"></path>
                        <path d="M374.13768,147.644123 C365.837231,153.136999 359.876684,161.532506 357.433305,171.194957 L347.388,210.916 L346.40415,210.806458 C308.253802,206.604045 269.761747,206.558369 231.605467,210.668927 L229.604,210.888 L219.566695,171.194957 C217.078068,161.353572 210.940802,152.826489 202.398784,147.34196 C183.809278,135.406291 159.063729,140.800298 147.128073,159.38982 C86.0429331,254.528404 51,412.641672 51,567.870087 L51,586.590147 L67.8152238,594.817474 C167.232675,643.460292 240.015587,668 289,668 C344.071961,668 417.139725,643.245237 509.965293,594.421369 L526,585.987524 L526,567.870087 C526,412.641672 490.957067,254.528404 429.871913,159.389798 C417.936271,140.800298 393.190722,135.406291 374.601216,147.34196 L374.13768,147.644123 Z M186.190212,172.586408 C188.325717,173.957541 189.860034,176.089312 190.482191,178.549659 L207,243.870087 L227.110305,241.387333 C267.551779,236.394558 308.451943,236.364226 348.900778,241.297011 L370,243.870087 L386.517809,178.549659 C387.139966,176.089312 388.674283,173.957541 390.809788,172.586408 C395.457165,169.602491 401.643551,170.950991 404.627465,175.59837 C465.542488,270.472003 496,427.895908 496,567.870087 C407.111111,614.623362 338.111111,638 289,638 C245.888889,638 176.555556,614.623362 81,567.870087 C81,427.895908 111.457512,270.472003 172.372535,175.59837 C175.356449,170.950991 181.542835,169.602491 186.190212,172.586408 Z" id="Path-Copy-2" fill="#000000" fill-rule="nonzero" mask="url(#mask-2)"></path>
                    </g>
                    <path d="M239.530053,17.4166975 L65,118.181671 C24.77786,141.403934 0,184.320446 0,230.764973 L0,432.294919 C0,478.739446 24.77786,521.655958 65,544.878222 L239.530053,645.643195 C279.752193,668.865458 329.307913,668.865458 369.530053,645.643195 L544.060106,544.878222 C584.282246,521.655958 609.060106,478.739446 609.060106,432.294919 L609.060106,230.764973 C609.060106,184.320446 584.282246,141.403934 544.060106,118.181671 L369.530053,17.4166975 C329.307913,-5.80556584 279.752193,-5.80556584 239.530053,17.4166975 Z M354.530053,43.3974596 L529.060106,144.162433 C560.000214,162.025712 579.060106,195.038414 579.060106,230.764973 L579.060106,432.294919 C579.060106,468.021478 560.000214,501.03418 529.060106,518.89746 L354.530053,619.662433 C323.589945,637.525712 285.470161,637.525712 254.530053,619.662433 L80,518.89746 C49.0598923,501.03418 30,468.021478 30,432.294919 L30,230.764973 C30,195.038414 49.0598923,162.025712 80,144.162433 L254.530053,43.3974596 C285.470161,25.5341801 323.589945,25.5341801 354.530053,43.3974596 Z" id="Border" fill="#000000" fill-rule="nonzero"></path>
                </g>
                <g id="Face" transform="translate(217.000000, 328.400033)" fill="#000000">
                    <path d="M227.000711,0 C239.777497,0 251.091329,8.26780025 261.294255,23.4127714 C264.379996,27.9931694 263.168337,34.2078031 258.587939,37.2935443 C254.007541,40.3792854 247.792907,39.1676266 244.707166,34.5872286 C237.843429,24.3988664 231.823928,20 227.000711,20 C222.049941,20 215.600536,24.5384702 208.091753,34.8766509 C204.846169,39.3452105 198.592619,40.3366275 194.12406,37.0910428 C189.6555,33.8454581 188.664083,27.5919086 191.909668,23.1233491 C202.800882,8.12819651 214.351477,0 227.000711,0 Z M64.0007106,2.27373675e-13 C76.7774973,2.27373675e-13 88.0913292,8.26780025 98.2942549,23.4127714 C101.379996,27.9931694 100.168337,34.2078031 95.5879392,37.2935443 C91.0075412,40.3792854 84.7929075,39.1676266 81.7071663,34.5872286 C74.8434291,24.3988664 68.8239277,20 64.0007106,20 C59.0499408,20 52.6005358,24.5384702 45.0917534,34.8766509 C41.8461687,39.3452105 35.5926192,40.3366275 31.1240597,37.0910428 C26.6555001,33.8454581 25.6640831,27.5919086 28.9096678,23.1233491 C39.8008816,8.12819651 51.3514767,2.27373675e-13 64.0007106,2.27373675e-13 Z" id="Eyes" fill-rule="nonzero"></path>
                    <path d="M259.875702,77.2579573 C262.566409,76.6370249 265.251024,78.3149087 265.871956,81.0056157 C266.476548,83.6255146 264.901722,86.2396371 262.334594,86.9485983 L262.124298,87.0018692 L210.124298,99.0018692 C207.433591,99.6228016 204.748976,97.9449178 204.128044,95.2542108 C203.523452,92.6343119 205.098278,90.0201893 207.665406,89.3112282 L207.875702,89.2579573 L259.875702,77.2579573 Z M204.058142,137.369627 C204.466986,134.712138 206.898085,132.867288 209.545216,133.159641 L209.760286,133.188055 L261.760286,141.188055 C264.489599,141.607949 266.361753,144.160886 265.941858,146.890199 C265.533014,149.547688 263.101915,151.392538 260.454784,151.100186 L260.239714,151.071772 L208.239714,143.071772 C205.510401,142.651877 203.638247,140.09894 204.058142,137.369627 Z M286,109.129913 C288.761424,109.129913 291,111.368489 291,114.129913 C291,116.818668 288.877693,119.011731 286.21689,119.125294 L286,119.129913 L209,119.129913 C206.238576,119.129913 204,116.891337 204,114.129913 C204,111.441159 206.122307,109.248095 208.78311,109.134533 L209,109.129913 L286,109.129913 Z M31.1242975,77.2579573 C28.4335905,76.6370249 25.7489764,78.3149087 25.128044,81.0056157 C24.523452,83.6255146 26.0982778,86.2396371 28.6654059,86.9485983 L28.8757025,87.0018692 L80.8757025,99.0018692 C83.5664095,99.6228016 86.2510236,97.9449178 86.871956,95.2542108 C87.476548,92.6343119 85.9017222,90.0201893 83.3345941,89.3112282 L83.1242975,89.2579573 L31.1242975,77.2579573 Z M86.9418585,137.369627 C86.533014,134.712138 84.1019151,132.867288 81.4547841,133.159641 L81.2397141,133.188055 L29.2397141,141.188055 C26.510401,141.607949 24.6382472,144.160886 25.0581415,146.890199 C25.466986,149.547688 27.8980849,151.392538 30.5452159,151.100186 L30.7602859,151.071772 L82.7602859,143.071772 C85.489599,142.651877 87.3617528,140.09894 86.9418585,137.369627 Z M5,109.129913 C2.23857625,109.129913 0,111.368489 0,114.129913 C0,116.818668 2.12230671,119.011731 4.78311038,119.125294 L5,119.129913 L82,119.129913 C84.7614237,119.129913 87,116.891337 87,114.129913 C87,111.441159 84.8776933,109.248095 82.2168896,109.134533 L82,109.129913 L5,109.129913 Z" id="Whiskers" fill-rule="nonzero"></path>
                    <path d="M154.051595,133.595075 L167.202729,121.518511 C171.943399,117.165197 172.292769,109.754175 167.983069,104.96553 C165.784499,102.522629 162.667734,101.129913 159.399326,101.129913 L130.600593,101.129913 C124.193762,101.129913 119,106.376235 119,112.847902 C119,116.149386 120.378763,119.297692 122.79719,121.518511 L135.948323,133.595075 C141.080813,138.308193 148.919105,138.308193 154.051595,133.595075 Z" id="Nose"></path>
                    <path d="M137.960483,167.026302 L138.045458,166.94318 C138.067076,166.922273 138.088781,166.901472 138.110572,166.880777 C138.22434,166.772287 138.341691,166.66586 138.461848,166.562047 C138.47557,166.550888 138.489269,166.53913 138.502997,166.527413 C138.556384,166.481073 138.610361,166.435933 138.664882,166.391317 C138.67906,166.380579 138.693115,166.369151 138.7072,166.357763 C138.763391,166.311411 138.820308,166.266375 138.877794,166.221908 C138.891735,166.212102 138.90509,166.201833 138.918468,166.191599 C139.111186,166.043102 139.310913,165.901511 139.516818,165.76678 C139.537744,165.754041 139.558463,165.740586 139.579228,165.72721 C139.636739,165.689251 139.69504,165.652566 139.753818,165.616427 C139.772356,165.605863 139.790002,165.59508 139.807679,165.584354 C139.93142,165.508521 140.058257,165.435356 140.187175,165.364736 C140.231322,165.341046 140.275628,165.317172 140.320104,165.293636 C140.357691,165.27335 140.395724,165.253562 140.433931,165.233993 C140.469007,165.216334 140.50403,165.198628 140.539152,165.181129 C140.587442,165.156847 140.636219,165.133066 140.685268,165.10964 C140.821461,165.044677 140.958576,164.982855 141.097002,164.924137 C141.116757,164.915759 141.136585,164.907423 141.156455,164.899144 L141.178061,164.890171 C141.231141,164.8682 141.28441,164.846684 141.33786,164.825626 L141.156455,164.899144 C141.247986,164.861006 141.339762,164.82433 141.431756,164.789104 C141.600023,164.724805 141.770643,164.664752 141.942827,164.609324 C142.173983,164.534373 142.406085,164.46873 142.638842,164.411812 C142.66782,164.405539 142.697224,164.398501 142.726662,164.391595 C143.142259,164.293117 143.559546,164.223213 143.976472,164.180052 C143.998404,164.178506 144.02009,164.176322 144.041786,164.174209 C144.106929,164.167197 144.172556,164.161499 144.238162,164.15646 C144.261208,164.155258 144.283541,164.153606 144.305885,164.152028 C144.368662,164.147095 144.432125,164.143266 144.495558,164.140049 C144.528188,164.138771 144.561139,164.137239 144.59411,164.13587 C144.635176,164.13387 144.675511,164.132476 144.715829,164.131328 C144.771109,164.129939 144.827185,164.128767 144.883306,164.12807 C144.894691,164.127841 144.905987,164.127729 144.917281,164.127637 L145.087937,164.127637 C145.099231,164.127729 145.110526,164.127841 145.121823,164.127972 C145.178194,164.128765 145.235191,164.129959 145.292135,164.131642 C145.330973,164.132524 145.369578,164.13386 145.408195,164.135423 C145.442485,164.137163 145.476839,164.138757 145.511171,164.140529 C145.575381,164.143391 145.639699,164.14729 145.704041,164.151821 C145.721942,164.153634 145.739631,164.15494 145.757313,164.156292 C145.827407,164.161029 145.897786,164.167119 145.968179,164.17397 C145.986451,164.176461 146.004467,164.178275 146.022476,164.180137 C146.441322,164.222485 146.860793,164.292609 147.278325,164.390704 C147.307994,164.398501 147.337397,164.405539 147.366764,164.412709 C147.512097,164.447447 147.657563,164.486502 147.802673,164.529017 C147.842715,164.541279 147.883154,164.553375 147.923511,164.565725 C147.969838,164.579455 148.016081,164.594003 148.06228,164.608907 C148.234896,164.664856 148.405839,164.725031 148.575013,164.789767 C148.594175,164.797038 148.613883,164.804657 148.63358,164.812343 C148.702741,164.839353 148.771177,164.866906 148.839303,164.895208 L148.885537,164.914551 C148.957624,164.94492 149.029357,164.976131 149.100722,165.008176 L148.848763,164.899144 C148.956917,164.944208 149.063862,164.990952 149.169579,165.039331 C149.218828,165.061968 149.267718,165.084843 149.316425,165.108112 C149.373172,165.135036 149.429205,165.162414 149.484875,165.190256 C149.507773,165.201994 149.530441,165.213456 149.553067,165.225004 C149.604659,165.250973 149.656386,165.277902 149.70779,165.305233 C149.745069,165.325524 149.781999,165.345487 149.818807,165.365684 C149.865167,165.390556 149.911216,165.416263 149.956996,165.442294 C149.976756,165.45418 149.997023,165.465812 150.017251,165.477516 C150.156546,165.557337 150.292704,165.64047 150.4263,165.726475 C150.446755,165.740586 150.467474,165.754041 150.488145,165.767575 C150.619432,165.852519 150.747963,165.941037 150.873944,166.032218 C150.890794,166.04544 150.90818,166.058106 150.925527,166.070829 C150.979744,166.109586 151.032804,166.149343 151.085392,166.189575 C151.098755,166.200778 151.112797,166.211573 151.126812,166.222406 C151.184909,166.266375 151.241827,166.311411 151.298171,166.357006 C151.315751,166.372101 151.333438,166.386503 151.35108,166.400968 C151.39427,166.435569 151.436859,166.471126 151.479108,166.507004 C151.511822,166.535493 151.544902,166.563926 151.577808,166.592588 C151.686286,166.686549 151.791994,166.782862 151.895371,166.881203 C151.916437,166.901472 151.938141,166.922273 151.959759,166.94318 C151.988759,166.971101 152.016836,166.998626 152.044734,167.026302 L152.10622,167.087788 C152.133896,167.115686 152.161421,167.143763 152.188793,167.172018 C152.210249,167.194381 152.23105,167.216085 152.251745,167.237876 C152.722963,167.73295 153.14794,168.282334 153.516095,168.881122 C153.528481,168.902621 153.541065,168.92324 153.553574,168.943902 C153.583884,168.992687 153.613544,169.042701 153.642809,169.093047 C153.657736,169.119897 153.67308,169.146545 153.6883,169.173259 C153.720162,169.228136 153.750989,169.283527 153.781339,169.339305 C153.796037,169.367213 153.810917,169.394829 153.825666,169.422511 C153.850424,169.468213 153.87464,169.514595 153.898529,169.561235 C153.916188,169.596312 153.933894,169.631334 153.951393,169.666456 C154.014477,169.792733 154.075023,169.921086 154.133102,170.051268 C154.153869,170.097875 154.174067,170.144049 154.193916,170.190371 C154.207138,170.221222 154.220328,170.25244 154.233378,170.283759 C159.423743,182.740636 166.609446,188.129913 177.002609,188.129913 C187.395771,188.129913 194.581474,182.740636 199.771839,170.283759 C201.896012,165.185746 207.750749,162.774972 212.848763,164.899144 C217.946776,167.023316 220.35755,172.878054 218.233378,177.976067 C210.09041,197.519191 195.94278,208.129913 177.002609,208.129913 C163.913954,208.129913 153.113995,203.062723 145.002749,193.482213 C136.891223,203.062723 126.091264,208.129913 113.002609,208.129913 C94.0624378,208.129913 79.9148076,197.519191 71.7718395,177.976067 C69.6476674,172.878054 72.0584418,167.023316 77.1564549,164.899144 C82.2544679,162.774972 88.1092058,165.185746 90.2333779,170.283759 C95.4237431,182.740636 102.609446,188.129913 113.002609,188.129913 C123.395771,188.129913 130.581474,182.740636 135.771839,170.283759 L135.796833,170.224307 C135.85555,170.085881 135.917373,169.948765 135.982253,169.813073 C136.005761,169.763523 136.029543,169.714746 136.053675,169.666243 C136.071324,169.631334 136.08903,169.596312 136.106942,169.561391 C136.126257,169.523029 136.146046,169.484996 136.166052,169.447137 C136.189868,169.402932 136.213742,169.358627 136.237951,169.314496 C136.308052,169.185562 136.381216,169.058724 136.456835,168.934004 C136.467776,168.917306 136.478558,168.89966 136.489396,168.882046 C136.525261,168.822345 136.561947,168.764043 136.599171,168.706222 C136.613282,168.685767 136.626737,168.665048 136.64027,168.644377 C136.971497,168.136705 137.345175,167.666807 137.753898,167.237151 C137.774167,167.216085 137.794968,167.194381 137.815875,167.172763 C137.843796,167.143763 137.871322,167.115686 137.898998,167.087788 L137.960483,167.026302 Z" id="Mouth" fill-rule="nonzero"></path>
                </g>
                <path d="M315,116.529946 L317.037823,119.566445 C325.501422,132.016445 325.533333,129.602567 337,136.611579 C328.021449,140.346568 320.921563,146.8886 315.70034,156.237673 L315,157.529946 C309.72,147.48913 302.386667,140.516341 293,136.611579 L294.600496,135.649271 C305.263636,129.345472 304.92,131.705271 315,116.529946 Z M409,116.529946 L411.037823,119.566445 C419.501422,132.016445 419.533333,129.602567 431,136.611579 C422.021449,140.346568 414.921563,146.8886 409.70034,156.237673 L409,157.529946 C403.72,147.48913 396.386667,140.516341 387,136.611579 L388.600496,135.649271 C399.263636,129.345472 398.92,131.705271 409,116.529946 Z M363,52.5299462 L366.702676,58.2213368 C381.616467,80.8412501 381.713531,76.4690146 402,89.26464 C385.933793,96.1611918 373.26088,108.28961 363.98126,125.649896 L363,127.529946 C353.64,109.162599 340.64,96.4074972 324,89.26464 L326.214408,87.885698 C345.755494,75.8754339 344.936842,80.5911707 363,52.5299462 Z" id="Stars" fill="#000000"></path>
            </g>
        </g>
    </g>
</svg>